# AST/ASF file generated using VICON BodyLanguage
# -----------------------------------------------
:version 1.10
:name VICON
:units
  mass 1.0
  length 0.45
  angle deg
:documentation
   .ast/.asf automatically generated from VICON data using
   VICON BodyBuilder and BodyLanguage model FoxedUp or BRILLIANT.MOD
:root
   order TX TY TZ RX RY RZ
   axis XYZ
   position 0 0 0  
   orientation 0 0 0 
:bonedata
  begin
     id 1 
     name lhipjoint
     direction 0.714689 -0.624256 0.315473 
     length 2.45343 
     axis 0 0 0  XYZ
  end
  begin
     id 2 
     name lfemur
     direction 0.34202 -0.939693 0  
     length 6.59069  
     axis 0 0 20  XYZ
    dof rx ry rz
    limits (-160.0 20.0)
           (-70.0 70.0)
           (-60.0 70.0)
  end
  begin
     id 3 
     name ltibia
     direction 0.34202 -0.939693 0   
     length 6.73476   
     axis 0 0 20   XYZ
    dof rx
    limits (-10.0 170.0)
  end
  begin
     id 4 
     name lfoot
     direction 0.0718085 -0.197292 0.977711   
     length 1.52607   
     axis -90 7.62852e-016 20   XYZ
    dof rx rz
    limits (-45.0 90.0)
           (-70.0 20.0)
  end
  begin
     id 5 
     name ltoes
     direction 1.53553e-011 -4.22024e-011 1   
     length 0.777832   
     axis -90 7.62852e-016 20   XYZ
    dof rx
    limits (-90.0 20.0)
  end
  begin
     id 6 
     name rhipjoint
     direction -0.727419 -0.612432 0.309497   
     length 2.50079  
     axis 0 0 0  XYZ 
  end
  begin
     id 7 
     name rfemur
     direction -0.34202 -0.939693 0   
     length 6.51665   
     axis 0 0 -20   XYZ
    dof rx ry rz
    limits (-160.0 20.0)
           (-70.0 70.0)
           (-70.0 60.0)
  end
  begin
     id 8 
     name rtibia
     direction -0.34202 -0.939693 0   
     length 6.48919   
     axis 0 0 -20   XYZ
    dof rx
    limits (-10.0 170.0)
 end
 begin
     id 9 
     name rfoot
     direction -0.112205 -0.308282 0.944655   
     length 1.68717  
     axis -90 -7.62852e-016 -20   XYZ
    dof rx rz
    limits (-45.0 90.0)
           (-20.0 70.0)
  end
  begin
     id 10 
     name rtoes
     direction -1.53583e-011 -4.21993e-011 1   
     length 0.846859   
     axis -90 -7.62852e-016 -20   XYZ
    dof rx
    limits (-90.0 20.0)
  end
  begin
     id 11 
     name lowerback
     direction -0.00119603 0.996364 -0.0851956   
     length 1.67242   
     axis 0 0 0   XYZ
    dof rx ry rz
    limits (-20.0 45.0)
           (-30.0 30.0)
           (-30.0 30.0)
  end
  begin
     id 12 
     name upperback
     direction -0.00531001 0.998318 0.0577248   
     length 1.64819   
     axis 0 0 0   XYZ
    dof rx ry rz
    limits (-20.0 45.0)
           (-30.0 30.0)
           (-30.0 30.0)
  end
  begin
     id 13 
     name thorax
     direction -0.00653676 0.995132 0.0983291   
     length 1.67429   
     axis 0 0 0   XYZ
    dof rx ry rz
    limits (-20.0 45.0)
           (-30.0 30.0)
           (-30.0 30.0)
  end
  begin
     id 14 
     name lowerneck
     direction 0.0141424 0.999886 0.00525412   
     length 1.59623   
     axis 0 0 0   XYZ
    dof rx ry rz
    limits (-20.0 45.0)
           (-30.0 30.0)
           (-30.0 30.0)
  end
  begin
     id 15 
     name upperneck
     direction -0.0640064 0.987178 -0.146232   
     length 1.59576   
     axis 0 0 0   XYZ
    dof rx ry rz
    limits (-20.0 45.0)
           (-30.0 30.0)
           (-30.0 30.0)
  end
  begin
     id 16
     name head
     direction -0.0222942 0.998496 -0.0500859  
     length 1.60959  
     axis 0 0 0   XYZ
    dof rx ry rz
    limits (-20.0 45.0)
           (-30.0 30.0)
           (-30.0 30.0)
  end
  begin
     id 17 
     name lclavicle
     direction 0.908549 0.392612 0.142806  
     length 2.80649  
     axis 0 0 0   XYZ
    dof ry rz
    limits (-20.0 10.0)
           (0.0 20.0)
  end
  begin
     id 18 
     name lhumerus
     direction 1 -4.48968e-011 1.08832e-028   
     length 4.2884   
     axis -180 -30 -90   XYZ
    dof rx ry rz
    limits (-60.0 90.0)
           (-90.0 90.0)
           (-90.0 90.0)
  end
  begin
     id 19
     name lradius
     direction 1 -4.48952e-011 -3.02642e-028   
     length 3.06552   
     axis -180 -30 -90   XYZ
    dof rx
    limits (-10.0 170.0)
  end
  begin
     id 20
     name lwrist
     direction 1 -4.49014e-011 1.58672e-027   
     length 1.53276   
     axis -1.65735e-015 90 90   XYZ
    dof ry
    limits (-180.0 0.0)
 end
  begin
     id 21 
     name lhand
     direction 1 -4.48928e-011 3.17344e-027   
     length 0.753045   
     axis -2.02492e-015 90 90   XYZ
    dof rx rz
    limits (-90.0 90.0)
           (-45.0 45.0)
  end
  begin
     id 22 
     name lfingers
     direction 1 -4.48958e-011 6.34687e-027   
     length 0.607124   
     axis -4.04985e-015 90 90   XYZ
    dof rx
    limits (0.0 90.0)
  end
  begin
     id 23
     name lthumb
     direction 0.707107 -6.34905e-011 0.707107   
     length 0.871712   
     axis -90 45 2.85299e-015   XYZ
    dof rx rz
    limits (-45.0 45.0)
           (-45.0 45.0)
  end
  begin
     id 24 
     name rclavicle
     direction -0.885098 0.45949 0.0739604   
     length 2.9478  
     axis 0 0 0   XYZ 
    dof ry rz
    limits (-10.0 20.0)
           (-20.0 0.0)
  end
  begin
     id 25 
     name rhumerus
     direction -1 -4.4898e-011 -2.61739e-027  
     length 4.52172   
     axis -180 30 90   XYZ
    dof rx ry rz
    limits (-90.0 60.0)
           (-90.0 90.0)
           (-90.0 90.0)
  end
  begin
     id 26 
     name rradius
     direction -1 -4.48945e-011 9.02552e-028   
     length 2.8914   
     axis -180 30 90   XYZ
    dof rx
    limits (-10.0 170.0)
  end
  begin
     id 27 
     name rwrist
     direction -1 -4.49018e-011 1.58672e-027   
     length 1.4457   
     axis -1.65735e-015 -90 -90   XYZ
    dof ry
    limits (-180.0 0.0)
  end
  begin
     id 28
     name rhand
     direction -1 -4.48825e-011 3.17344e-027   
     length 0.680541   
     axis -2.02492e-015 -90 -90   XYZ
    dof rx rz
    limits (-90.0 90.0)
           (-45.0 45.0)
  end
  begin
     id 29
     name rfingers
     direction -1 -4.49067e-011 6.34687e-027   
     length 0.54867   
     axis -4.04985e-015 -90 -90   XYZ
    dof rx
    limits (0.0 90.0)
  end
  begin
     id 30
     name rthumb
     direction -0.707107 -6.34833e-011 0.707107   
     length 0.787783   
     axis -90 -45 -2.85299e-015   XYZ
    dof rx rz
    limits (-45.0 45.0)
           (-45.0 45.0)
  end
:hierarchy
  begin
    root lhipjoint rhipjoint lowerback
    lhipjoint lfemur
    lfemur ltibia
    ltibia lfoot
    lfoot ltoes
    rhipjoint rfemur
    rfemur rtibia
    rtibia rfoot
    rfoot rtoes
    lowerback upperback
    upperback thorax
    thorax lowerneck lclavicle rclavicle
    lowerneck upperneck
    upperneck head
    lclavicle lhumerus
    lhumerus lradius
    lradius lwrist
    lwrist lhand lthumb
    lhand lfingers
    rclavicle rhumerus
    rhumerus rradius
    rradius rwrist
    rwrist rhand rthumb
    rhand rfingers
  end

#!OML:ASF E:\emotionWalksFemale\Project 1\Capture day 1\Session 1\Female1.ASF
:FULLY-SPECIFIED
:DEGREES
17
root 9.53338 15.4533 -10.4072 9.72366 1.35196 -0.706671
lowerback 11.9605 0.611586 0.517553
upperback -2.33457 0.921872 0.277113
thorax -9.22853 0.425073 -0.177678
lowerneck -5.84266 -3.39411 -6.50118
upperneck 0.192283 -4.21764 6.28384
head 1.38865 -2.02004 3.04391
rclavicle -1.32937e-014 -4.67144e-015
rhumerus -50.0012 14.5703 -88.5627
rradius 35.004
rwrist 25.7616
rhand -14.5483 -54.0461
rfingers 7.12502
rthumb 11.6004 -83.705
lclavicle -1.32937e-014 -4.67144e-015
lhumerus -49.5797 1.57163 74.2576
lradius 33.5956
lwrist -11.5641
lhand -9.29746 -36.7989
lfingers 7.12502
lthumb 16.6601 -7.49387
rfemur -18.1946 9.6166 26.0326
rtibia 29.3093
rfoot -19.0017 -24.4447
rtoes -4.55409
lfemur -23.0829 -8.09803 -21.5385
ltibia 35.2012
lfoot -23.7095 11.0498
ltoes -37.2812
18
root 9.53 15.4355 -10.4083 9.8797 1.43645 -0.717147
lowerback 12.2362 0.600733 0.598254
upperback -2.30608 0.917308 0.22721
thorax -9.35558 0.416135 -0.278946
lowerneck -5.83567 -3.41926 -6.24016
upperneck -0.213618 -4.25293 6.18937
head 1.2471 -2.03853 2.96131
rclavicle -8.26199e-015 -5.71506e-015
rhumerus -50.3359 14.6286 -88.7551
rradius 34.9375
rwrist 25.7654
rhand -14.5314 -53.8629
rfingers 7.12502
rthumb 11.6166 -83.5209
lclavicle -8.26199e-015 -5.71506e-015
lhumerus -49.8575 1.49935 74.0527
lradius 33.3907
lwrist -11.6604
lhand -8.84369 -36.5713
lfingers 7.12502
lthumb 17.0969 -7.30355
rfemur -18.6652 9.36175 26.073
rtibia 29.8877
rfoot -19.3386 -24.3288
rtoes -4.55001
lfemur -23.546 -8.07738 -21.4862
ltibia 35.7512
lfoot -23.9531 11.0211
ltoes -37.2895
19
root 9.53054 15.419 -10.4119 10.2228 1.50836 -0.673549
lowerback 12.3364 0.615614 0.708861
upperback -2.28231 0.945511 0.120818
thorax -9.38396 0.420052 -0.462138
lowerneck -5.84036 -3.48063 -5.83541
upperneck -0.724108 -4.33991 5.97717
head 1.06979 -2.08489 2.81094
rclavicle 6.85807e-015 -2.73329e-015
rhumerus -50.6004 14.8661 -89.1269
rradius 34.7737
rwrist 25.4616
rhand -14.9021 -53.6808
rfingers 7.12502
rthumb 11.2592 -83.3586
lclavicle 6.85807e-015 -2.73329e-015
lhumerus -50.1113 1.38505 73.8789
lradius 33.2941
lwrist -11.9417
lhand -8.58521 -36.3526
lfingers 7.12502
lthumb 17.3457 -7.10665
rfemur -19.3806 9.05157 26.0109
rtibia 30.4681
rfoot -19.5105 -24.2266
rtoes -4.96093
lfemur -24.2374 -8.07498 -21.4848
ltibia 36.3105
lfoot -24.1648 11.0568
ltoes -37.6617
20
root 9.52943 15.4045 -10.4155 10.6192 1.47468 -0.70891
lowerback 12.4255 0.648724 0.806405
upperback -2.2857 1.00378 0.0960928
thorax -9.43673 0.441515 -0.556799
lowerneck -5.92426 -3.51008 -5.8915
upperneck -1.05401 -4.36092 6.03718
head 0.983186 -2.09354 2.84096
rclavicle 6.79595e-015 1.44119e-015
rhumerus -50.9433 15.197 -89.4286
rradius 34.7418
rwrist 25.2543
rhand -15.1537 -53.7584
rfingers 7.12502
rthumb 11.0165 -83.4493
lclavicle 6.79595e-015 1.44119e-015
lhumerus -50.401 1.37094 73.8264
lradius 33.1848
lwrist -12.1458
lhand -8.43202 -36.4595
lfingers 7.12502
lthumb 17.4931 -7.22657
rfemur -20.1662 8.83073 26.016
rtibia 31.0594
rfoot -19.6395 -24.079
rtoes -5.22245
lfemur -24.9772 -7.97927 -21.3997
ltibia 36.8418
lfoot -24.4312 11.1671
ltoes -38.1175
21
root 9.52814 15.3923 -10.4117 10.8814 1.36628 -0.756158
lowerback 12.6236 0.69695 0.910181
upperback -2.30285 1.08368 0.0599094
thorax -9.5671 0.471842 -0.673775
lowerneck -5.79819 -3.50071 -6.1912
upperneck -1.45407 -4.32616 6.40622
head 0.850362 -2.07338 3.02727
rclavicle 3.42904e-015 -7.50412e-015
rhumerus -51.428 15.2905 -89.6527
rradius 34.742
rwrist 25.3596
rhand -15.2698 -53.698
rfingers 7.12502
rthumb 10.9045 -83.3949
lclavicle 3.42904e-015 -7.50412e-015
lhumerus -50.9659 1.15604 73.8509
lradius 33.2981
lwrist -12.106
lhand -8.26964 -36.4769
lfingers 7.12502
lthumb 17.6494 -7.25795
rfemur -20.7652 8.65774 26.0496
rtibia 31.67
rfoot -19.9042 -23.9509
rtoes -5.48957
lfemur -25.4995 -7.82437 -21.3337
ltibia 37.347
lfoot -24.7408 11.2576
ltoes -38.2816
22
root 9.53113 15.3777 -10.4079 11.2046 1.28353 -0.711681
lowerback 12.7636 0.72279 1.01444
upperback -2.30326 1.12979 -0.0135443
thorax -9.64481 0.484964 -0.823419
lowerneck -5.93356 -3.51874 -6.22788
upperneck -1.79355 -4.32898 6.4845
head 0.768595 -2.07194 3.06047
rclavicle -6.08778e-015 -7.00716e-015
rhumerus -51.826 15.3092 -89.84
rradius 34.7052
rwrist 25.6514
rhand -14.9393 -53.718
rfingers 7.12502
rthumb 11.2233 -83.3978
lclavicle -6.08778e-015 -7.00716e-015
lhumerus -51.5169 0.864567 73.9147
lradius 33.5264
lwrist -11.9996
lhand -7.89611 -36.0895
lfingers 7.12502
lthumb 18.0088 -6.90323
rfemur -21.4646 8.46087 25.964
rtibia 32.3357
rfoot -20.1882 -23.8347
rtoes -6.22046
lfemur -26.1585 -7.73782 -21.3707
ltibia 37.9719
lfoot -25.1164 11.2769
ltoes -38.2271
23
root 9.53093 15.3599 -10.4085 11.6206 1.2492 -0.598445
lowerback 12.8355 0.735698 0.978227
upperback -2.25031 1.13789 -0.0512214
thorax -9.6282 0.489903 -0.84579
lowerneck -6.42395 -3.5579 -6.06686
upperneck -2.03732 -4.35502 6.23772
head 0.765476 -2.08072 2.93942
rclavicle -3.516e-015 4.37326e-015
rhumerus -52.0127 15.4583 -89.9819
rradius 34.6175
rwrist 25.8125
rhand -14.6386 -53.8687
rfingers 7.12502
rthumb 11.5133 -83.5325
lclavicle -3.516e-015 4.37326e-015
lhumerus -51.8538 0.804114 73.9616
lradius 33.6029
lwrist -12.051
lhand -7.5497 -36.07
lfingers 7.12502
lthumb 18.3421 -6.9148
rfemur -22.3023 8.31016 25.8023
rtibia 33.0225
rfoot -20.4288 -23.7228
rtoes -6.69805
lfemur -26.9773 -7.72781 -21.4436
ltibia 38.6641
lfoot -25.4468 11.2588
ltoes -37.9659
24
root 9.5238 15.337 -10.4243 13.3329 -0.287627 -0.878516
lowerback 11.6839 1.32699 0.618921
upperback -2.62163 1.86398 -0.0617336
thorax -9.36057 0.861912 -0.779601
lowerneck -6.37208 -3.53803 -6.0904
upperneck -2.59628 -4.31021 6.29894
head 0.576484 -2.05867 2.9699
rclavicle -3.41661e-015 -1.39149e-015
rhumerus -52.241 15.7 -90.229
rradius 34.443
rwrist 25.7189
rhand -14.6972 -53.8386
rfingers 7.12502
rthumb 11.4568 -83.5056
lclavicle -3.41661e-015 -1.39149e-015
lhumerus -52.2238 0.782525 73.9965
lradius 33.5155
lwrist -12.3482
lhand -7.56102 -36.3277
lfingers 7.12502
lthumb 18.3312 -7.17146
rfemur -24.8435 9.28432 25.5629
rtibia 33.7296
rfoot -20.0151 -23.1368
rtoes -7.42585
lfemur -29.238 -6.557 -21.2013
ltibia 39.4738
lfoot -25.7108 11.5225
ltoes -37.419
25
root 9.51688 15.3146 -10.4247 14.1744 -0.76485 -1.08277
lowerback 11.2921 1.55264 0.52818
upperback -2.80959 2.15331 -0.0442363
thorax -9.3374 1.00774 -0.757357
lowerneck -5.93811 -3.50379 -6.12665
upperneck -3.22601 -4.26272 6.44527
head 0.301495 -2.04071 3.0389
rclavicle -1.59028e-015 -1.98785e-016
rhumerus -52.6687 15.8076 -90.5169
rradius 34.3477
rwrist 25.8186
rhand -14.5597 -53.6618
rfingers 7.12502
rthumb 11.5894 -83.3213
lclavicle -1.59028e-015 -1.98785e-016
lhumerus -52.5309 0.811373 73.9918
lradius 33.1205
lwrist -12.8009
lhand -7.839 -36.5272
lfingers 7.12502
lthumb 18.0637 -7.34604
rfemur -26.1749 9.6483 25.5771
rtibia 34.3765
rfoot -20.0517 -23.0167
rtoes -7.52802
lfemur -30.5324 -6.05771 -20.9875
ltibia 40.2664
lfoot -26.0795 11.5547
ltoes -37.429
26
root 9.51128 15.2951 -10.418 14.418 -0.621012 -1.20973
lowerback 11.462 1.52613 0.629843
upperback -2.79107 2.13844 0.00532578
thorax -9.41481 0.995443 -0.763859
lowerneck -6.04343 -3.51161 -6.04547
upperneck -3.4224 -4.26601 6.34325
head 0.252094 -2.0422 2.98866
rclavicle -1.14301e-014 1.54058e-015
rhumerus -53.0868 15.9099 -90.782
rradius 34.3349
rwrist 25.9085
rhand -14.1541 -53.586
rfingers 7.12502
rthumb 11.9805 -83.2232
lclavicle -1.14301e-014 1.54058e-015
lhumerus -52.7579 1.0115 73.8973
lradius 32.7033
lwrist -13.1135
lhand -7.94809 -36.6338
lfingers 7.12502
lthumb 17.9588 -7.44296
rfemur -26.7017 9.55788 25.753
rtibia 34.9595
rfoot -20.3684 -23.0558
rtoes -7.33647
lfemur -31.1823 -6.02403 -20.7925
ltibia 41.0161
lfoot -26.4421 11.5014
ltoes -37.6989
